REM DIRINDEX 1\6,1\2\7,1\2\8,1\2\9,1\3\10,1\3\11,1\4\12,1\4\13,1\4\14,1\5\15,1\5\16,1\5\17
REM DIRNAME cjc040,folder01,folder02,folder03,folder04,folder05,folder06,folder07,folder08,folder09,folder10,folder11,folder12,folder13,folder14,folder15,folder16
TITLE ""
FILE "P2Q_t2_0251-0268.mp3" MP3
  TRACK 01 AUDIO
    TITLE "7:cjc040_4580"
    INDEX 01 00:00:00
  TRACK 02 AUDIO
    TITLE "0:"
    INDEX 01 00:00:62
  TRACK 03 AUDIO
    TITLE "8:cjc040_4581"
    INDEX 01 00:01:36
  TRACK 04 AUDIO
    TITLE "0:"
    INDEX 01 00:03:45
  TRACK 05 AUDIO
    TITLE "9:cjc040_4582"
    INDEX 01 00:04:21
  TRACK 06 AUDIO
    TITLE "0:"
    INDEX 01 00:05:18
  TRACK 07 AUDIO
    TITLE "7:cjc040_4583"
    INDEX 01 00:06:73
  TRACK 08 AUDIO
    TITLE "0:"
    INDEX 01 00:08:21
  TRACK 09 AUDIO
    TITLE "8:cjc040_4584"
    INDEX 01 00:09:06
  TRACK 10 AUDIO
    TITLE "0:"
    INDEX 01 00:12:26
  TRACK 11 AUDIO
    TITLE "9:cjc040_4585"
    INDEX 01 00:13:02
  TRACK 12 AUDIO
    TITLE "0:"
    INDEX 01 00:14:25
  TRACK 13 AUDIO
    TITLE "7:cjc040_4586"
    INDEX 01 00:16:10
  TRACK 14 AUDIO
    TITLE "0:"
    INDEX 01 00:17:18
  TRACK 15 AUDIO
    TITLE "8:cjc040_4587"
    INDEX 01 00:17:70
  TRACK 16 AUDIO
    TITLE "0:"
    INDEX 01 00:19:03
  TRACK 17 AUDIO
    TITLE "9:cjc040_4588"
    INDEX 01 00:19:56
  TRACK 18 AUDIO
    TITLE "0:"
    INDEX 01 00:20:63
  TRACK 19 AUDIO
    TITLE "7:cjc040_4589"
    INDEX 01 00:22:42
  TRACK 20 AUDIO
    TITLE "0:"
    INDEX 01 00:23:48
  TRACK 21 AUDIO
    TITLE "8:cjc040_4590"
    INDEX 01 00:24:25
  TRACK 22 AUDIO
    TITLE "0:"
    INDEX 01 00:25:39
  TRACK 23 AUDIO
    TITLE "9:cjc040_4591"
    INDEX 01 00:26:15
  TRACK 24 AUDIO
    TITLE "0:"
    INDEX 01 00:27:26
  TRACK 25 AUDIO
    TITLE "7:cjc040_4592"
    INDEX 01 00:29:03
  TRACK 26 AUDIO
    TITLE "0:"
    INDEX 01 00:30:30
  TRACK 27 AUDIO
    TITLE "8:cjc040_4593"
    INDEX 01 00:31:12
  TRACK 28 AUDIO
    TITLE "0:"
    INDEX 01 00:35:63
  TRACK 29 AUDIO
    TITLE "9:cjc040_4594"
    INDEX 01 00:36:40
  TRACK 30 AUDIO
    TITLE "0:"
    INDEX 01 00:37:65
  TRACK 31 AUDIO
    TITLE "7:cjc040_4595"
    INDEX 01 00:39:47
  TRACK 32 AUDIO
    TITLE "0:"
    INDEX 01 00:40:54
  TRACK 33 AUDIO
    TITLE "8:cjc040_4596"
    INDEX 01 00:41:38
  TRACK 34 AUDIO
    TITLE "0:"
    INDEX 01 00:43:72
  TRACK 35 AUDIO
    TITLE "9:cjc040_4597"
    INDEX 01 00:44:52
  TRACK 36 AUDIO
    TITLE "0:"
    INDEX 01 00:45:63
  TRACK 37 AUDIO
    TITLE "7:cjc040_4598"
    INDEX 01 00:47:50
  TRACK 38 AUDIO
    TITLE "0:"
    INDEX 01 00:49:02
  TRACK 39 AUDIO
    TITLE "8:cjc040_4599"
    INDEX 01 00:49:57
  TRACK 40 AUDIO
    TITLE "0:"
    INDEX 01 00:52:65
  TRACK 41 AUDIO
    TITLE "9:cjc040_4600"
    INDEX 01 00:53:41
  TRACK 42 AUDIO
    TITLE "0:"
    INDEX 01 00:54:68
  TRACK 43 AUDIO
    TITLE "7:cjc040_4601"
    INDEX 01 00:56:57
  TRACK 44 AUDIO
    TITLE "0:"
    INDEX 01 00:58:28
  TRACK 45 AUDIO
    TITLE "8:cjc040_4602"
    INDEX 01 00:59:12
  TRACK 46 AUDIO
    TITLE "0:"
    INDEX 01 01:01:27
  TRACK 47 AUDIO
    TITLE "9:cjc040_4603"
    INDEX 01 01:02:10
  TRACK 48 AUDIO
    TITLE "0:"
    INDEX 01 01:03:57
  TRACK 49 AUDIO
    TITLE "7:cjc040_4604"
    INDEX 01 01:05:40
  TRACK 50 AUDIO
    TITLE "0:"
    INDEX 01 01:06:45
  TRACK 51 AUDIO
    TITLE "8:cjc040_4605"
    INDEX 01 01:07:23
  TRACK 52 AUDIO
    TITLE "0:"
    INDEX 01 01:11:29
  TRACK 53 AUDIO
    TITLE "9:cjc040_4606"
    INDEX 01 01:12:09
  TRACK 54 AUDIO
    TITLE "0:"
    INDEX 01 01:13:16
  TRACK 55 AUDIO
    TITLE "7:cjc040_4607"
    INDEX 01 01:14:66
  TRACK 56 AUDIO
    TITLE "0:"
    INDEX 01 01:16:05
  TRACK 57 AUDIO
    TITLE "8:cjc040_4608"
    INDEX 01 01:16:63
  TRACK 58 AUDIO
    TITLE "0:"
    INDEX 01 01:17:63
  TRACK 59 AUDIO
    TITLE "9:cjc040_4609"
    INDEX 01 01:18:45
  TRACK 60 AUDIO
    TITLE "0:"
    INDEX 01 01:19:66
  TRACK 61 AUDIO
    TITLE "7:cjc040_4610"
    INDEX 01 01:21:51
  TRACK 62 AUDIO
    TITLE "0:"
    INDEX 01 01:22:66
  TRACK 63 AUDIO
    TITLE "8:cjc040_4611"
    INDEX 01 01:23:48
  TRACK 64 AUDIO
    TITLE "0:"
    INDEX 01 01:26:09
  TRACK 65 AUDIO
    TITLE "9:cjc040_4612"
    INDEX 01 01:26:64
  TRACK 66 AUDIO
    TITLE "0:"
    INDEX 01 01:28:08
  TRACK 67 AUDIO
    TITLE "7:cjc040_4613"
    INDEX 01 01:29:72
  TRACK 68 AUDIO
    TITLE "0:"
    INDEX 01 01:31:06
  TRACK 69 AUDIO
    TITLE "8:cjc040_4614"
    INDEX 01 01:31:67
  TRACK 70 AUDIO
    TITLE "0:"
    INDEX 01 01:35:29
  TRACK 71 AUDIO
    TITLE "9:cjc040_4615"
    INDEX 01 01:36:09
  TRACK 72 AUDIO
    TITLE "0:"
    INDEX 01 01:37:28
  TRACK 73 AUDIO
    TITLE "7:cjc040_4616"
    INDEX 01 01:39:14
  TRACK 74 AUDIO
    TITLE "0:"
    INDEX 01 01:40:36
  TRACK 75 AUDIO
    TITLE "8:cjc040_4617"
    INDEX 01 01:41:12
  TRACK 76 AUDIO
    TITLE "0:"
    INDEX 01 01:42:12
  TRACK 77 AUDIO
    TITLE "9:cjc040_4618"
    INDEX 01 01:42:65
  TRACK 78 AUDIO
    TITLE "0:"
    INDEX 01 01:44:15
  TRACK 79 AUDIO
    TITLE "7:cjc040_4619"
    INDEX 01 01:45:69
  TRACK 80 AUDIO
    TITLE "0:"
    INDEX 01 01:46:74
  TRACK 81 AUDIO
    TITLE "8:cjc040_4620"
    INDEX 01 01:47:52
  TRACK 82 AUDIO
    TITLE "0:"
    INDEX 01 01:50:00
  TRACK 83 AUDIO
    TITLE "9:cjc040_4621"
    INDEX 01 01:50:54
  TRACK 84 AUDIO
    TITLE "0:"
    INDEX 01 01:51:62
  TRACK 85 AUDIO
    TITLE "7:cjc040_4622"
    INDEX 01 01:53:43
  TRACK 86 AUDIO
    TITLE "0:"
    INDEX 01 01:54:60
  TRACK 87 AUDIO
    TITLE "8:cjc040_4623"
    INDEX 01 01:55:36
  TRACK 88 AUDIO
    TITLE "0:"
    INDEX 01 01:57:39
  TRACK 89 AUDIO
    TITLE "9:cjc040_4624"
    INDEX 01 01:58:21
  TRACK 90 AUDIO
    TITLE "0:"
    INDEX 01 01:59:38
  TRACK 91 AUDIO
    TITLE "7:cjc040_4625"
    INDEX 01 02:01:25
  TRACK 92 AUDIO
    TITLE "0:"
    INDEX 01 02:02:42
  TRACK 93 AUDIO
    TITLE "8:cjc040_4626"
    INDEX 01 02:03:24
  TRACK 94 AUDIO
    TITLE "0:"
    INDEX 01 02:05:33
  TRACK 95 AUDIO
    TITLE "9:cjc040_4627"
    INDEX 01 02:06:16
  TRACK 96 AUDIO
    TITLE "0:"
    INDEX 01 02:07:35
  TRACK 97 AUDIO
    TITLE "7:cjc040_4628"
    INDEX 01 02:09:13
  TRACK 98 AUDIO
    TITLE "0:"
    INDEX 01 02:10:30
  TRACK 99 AUDIO
    TITLE "8:cjc040_4629"
    INDEX 01 02:11:12
  TRACK 100 AUDIO
    TITLE "0:"
    INDEX 01 02:13:56
  TRACK 101 AUDIO
    TITLE "9:cjc040_4630"
    INDEX 01 02:14:33
  TRACK 102 AUDIO
    TITLE "0:"
    INDEX 01 02:15:54
  TRACK 103 AUDIO
    TITLE "7:cjc040_4631"
    INDEX 01 02:17:34
  TRACK 104 AUDIO
    TITLE "0:"
    INDEX 01 02:19:07
  TRACK 105 AUDIO
    TITLE "8:cjc040_4632"
    INDEX 01 02:19:64
  TRACK 106 AUDIO
    TITLE "0:"
    INDEX 01 02:22:29
  TRACK 107 AUDIO
    TITLE "9:cjc040_4633"
    INDEX 01 02:23:09
  TRACK 108 AUDIO
    TITLE "0:"
    INDEX 01 02:24:61
